<svg id="Layer_1" data-name="Layer 1" xmlns="http://www.w3.org/2000/svg" viewBox="0 0 226.94287 58"><defs><style>.cls-1{fill:#5fbee7;}.cls-1,.cls-2,.cls-3,.cls-4{stroke:#393f3c;stroke-miterlimit:10;stroke-width:0.25px;}.cls-2,.cls-5{fill:#7d8273;}.cls-3{fill:#ff9217;}.cls-4{fill:#58d13d;}</style></defs><circle class="cls-1" cx="6.24791" cy="20.71913" r="6.12291"/><circle class="cls-2" cx="20.0166" cy="20.71913" r="6.12291"/><circle class="cls-3" cx="33.7853" cy="20.71913" r="6.12291"/><circle class="cls-2" cx="33.7853" cy="35.85817" r="6.12291"/><circle class="cls-4" cx="20.0166" cy="35.85817" r="6.12291"/><circle class="cls-1" cx="6.24791" cy="35.85817" r="6.12291"/><circle class="cls-2" cx="6.24791" cy="50.99721" r="6.12291"/><circle class="cls-2" cx="20.0166" cy="50.99721" r="6.12291"/><circle class="cls-3" cx="33.7853" cy="50.99721" r="6.12291"/><path class="cls-5" d="M43.74707,12.64014V0H80.86719V12.64014H69.667v44.48H54.78711v-44.48Z"/><path class="cls-5" d="M107.186,0q7.99878,0,11.79981,3.87988,3.79907,3.88183,3.80029,10.36035a18.252,18.252,0,0,1-.52,4.35987,12.9888,12.9888,0,0,1-1.60009,3.83984,10.27045,10.27045,0,0,1-2.75977,2.92041A10.45483,10.45483,0,0,1,113.82617,27.04v.16016a10.72527,10.72527,0,0,1,4.79981,1.48,11.02836,11.02836,0,0,1,3.28027,3.08007,13.04488,13.04488,0,0,1,1.87988,4.04,16.815,16.815,0,0,1,.6001,4.43994,23.036,23.036,0,0,1-.96,6.79981,13.90813,13.90813,0,0,1-3,5.35986,13.49262,13.49262,0,0,1-5.32031,3.48,22.43487,22.43487,0,0,1-7.91993,1.24024h-22.48V0Zm-4,22.3999a4.01669,4.01669,0,0,0,3.52-1.71972,6.88188,6.88188,0,0,0,1.2002-4.04,7.20733,7.20733,0,0,0-1.2002-4.16016,3.991,3.991,0,0,0-3.52-1.75977H99.58594V22.3999Zm.56006,24a4.89835,4.89835,0,0,0,3.68018-1.71972q1.59888-1.71973,1.59961-5.31983a7.36859,7.36859,0,0,0-1.59961-5.12012A4.85787,4.85787,0,0,0,103.74609,32.48H99.58594V46.3999Z"/><path class="cls-5" d="M161.74561,14.08008l-10.8003,43.04h-12.7998l-11.12012-43.04h11.52l6.16016,30.7998h.16015l5.83985-30.7998Z"/><path class="cls-5" d="M165.74463,26.24023A14.57854,14.57854,0,0,1,166.94434,19.96a10.97553,10.97553,0,0,1,3.24023-4.08008,12.87036,12.87036,0,0,1,4.7998-2.23974,24.55369,24.55369,0,0,1,5.88038-.68018,27.29616,27.29616,0,0,1,8,.96,10.94715,10.94715,0,0,1,4.71972,2.72022,9.13177,9.13177,0,0,1,2.28028,4.20019,22.26423,22.26423,0,0,1,.59961,5.31983V48.80029a30.34983,30.34983,0,0,0,.28027,4.71973,16.41386,16.41386,0,0,0,1.08008,3.6001H187.26465a9.09039,9.09039,0,0,1-.84033-2.2002q-.28125-1.15869-.52-2.27978h-.15967A9.38023,9.38023,0,0,1,181.30469,57a17.922,17.922,0,0,1-6.52,1,10.83032,10.83032,0,0,1-4.88037-1,8.25428,8.25428,0,0,1-3.19971-2.75977,12.35566,12.35566,0,0,1-1.76025-3.96,17.60915,17.60915,0,0,1-.55957-4.36035,18.88329,18.88329,0,0,1,.63964-5.23974,10.10523,10.10523,0,0,1,1.96-3.76026,10.692,10.692,0,0,1,3.36036-2.59961A26.58161,26.58161,0,0,1,175.26465,32.48l6.23974-1.67969a6.661,6.661,0,0,0,3.44-1.76025,4.91073,4.91073,0,0,0,.96-3.27979,5.91657,5.91657,0,0,0-1.15967-3.88037q-1.1609-1.3982-3.96-1.3999A4.73932,4.73932,0,0,0,176.94434,22a6.12928,6.12928,0,0,0-1.27979,4.08008v1.20019h-9.91992ZM183.50439,37a15.4776,15.4776,0,0,1-2.31982.76025,8.48281,8.48281,0,0,0-4.7998,2.39991,6.77285,6.77285,0,0,0-1.44043,4.56005,8.73678,8.73678,0,0,0,.96,4.23975,3.35454,3.35454,0,0,0,3.20019,1.76025,8.06944,8.06944,0,0,0,2.31983-.35986,6.474,6.474,0,0,0,2.20019-1.16015,6.12479,6.12479,0,0,0,1.64014-2.08008,6.72768,6.72768,0,0,0,.63965-3.04v-8.48A9.88829,9.88829,0,0,1,183.50439,37Z"/><path class="cls-5" d="M214.86328,14.08008v5.76025h.15967a15.66376,15.66376,0,0,1,4.08008-5A9.18287,9.18287,0,0,1,224.94287,12.96c.32031,0,.65283.01367,1,.04.34619.02783.68018.06738,1,.12012V23.68018q-.8811-.07911-1.71973-.12012-.84007-.03956-1.72021-.04a10.73922,10.73922,0,0,0-2.87988.3999,7.71125,7.71125,0,0,0-2.64014,1.32031,6.61318,6.61318,0,0,0-1.91992,2.39991,8.27967,8.27967,0,0,0-.71973,3.64013V57.12012h-11.04v-43.04Z"/></svg>